<svg width="32" height="33" viewBox="0 0 32 33" fill="none" xmlns="http://www.w3.org/2000/svg">
<path d="M21.3333 6.12937H24C24.7072 6.12937 25.3855 6.41033 25.8856 6.91042C26.3857 7.41052 26.6667 8.0888 26.6667 8.79604V27.4627C26.6667 28.17 26.3857 28.8482 25.8856 29.3483C25.3855 29.8484 24.7072 30.1294 24 30.1294H16.6667M5.33333 18.796V8.79604C5.33333 8.0888 5.61428 7.41052 6.11438 6.91042C6.61447 6.41033 7.29275 6.12937 7.99999 6.12937H10.6667M12 3.46271H20C20.7364 3.46271 21.3333 4.05966 21.3333 4.79604V7.46271C21.3333 8.19909 20.7364 8.79604 20 8.79604H12C11.2636 8.79604 10.6667 8.19909 10.6667 7.46271V4.79604C10.6667 4.05966 11.2636 3.46271 12 3.46271ZM17.8373 21.6307C18.1003 21.3677 18.3089 21.0555 18.4513 20.7119C18.5936 20.3683 18.6669 20 18.6669 19.628C18.6669 19.2561 18.5936 18.8878 18.4513 18.5442C18.3089 18.2006 18.1003 17.8884 17.8373 17.6254C17.5743 17.3624 17.2621 17.1538 16.9185 17.0114C16.5749 16.8691 16.2066 16.7958 15.8347 16.7958C15.4627 16.7958 15.0944 16.8691 14.7508 17.0114C14.4072 17.1538 14.095 17.3624 13.832 17.6254L7.15199 24.308C6.83499 24.6249 6.60296 25.0165 6.47733 25.4467L5.36133 29.2734C5.32786 29.3881 5.32586 29.5097 5.35552 29.6255C5.38518 29.7413 5.44542 29.8469 5.52992 29.9314C5.61443 30.016 5.7201 30.0762 5.83587 30.1058C5.95165 30.1355 6.07326 30.1335 6.18799 30.1L10.0147 28.984C10.4449 28.8584 10.8365 28.6264 11.1533 28.3094L17.8373 21.6307Z" stroke="#262D2E" stroke-width="3" stroke-linecap="round" stroke-linejoin="round"/>
</svg>
