<svg width="32" height="33" viewBox="0 0 32 33" fill="none" xmlns="http://www.w3.org/2000/svg">
<path d="M18.6667 3.46271V8.79604C18.6667 9.50328 18.9476 10.1816 19.4477 10.6817C19.9478 11.1818 20.6261 11.4627 21.3333 11.4627H26.6667M5.69066 28.796C5.92413 29.2004 6.25971 29.5364 6.66381 29.7704C7.06791 30.0044 7.52637 30.1282 7.99332 30.1294H24C24.7072 30.1294 25.3855 29.8484 25.8856 29.3483C26.3857 28.8482 26.6667 28.17 26.6667 27.4627V10.1294L20 3.46271H7.99999C7.29275 3.46271 6.61447 3.74366 6.11437 4.24376C5.61427 4.74385 5.33332 5.42213 5.33332 6.12937V10.1294M12 24.796L9.99999 22.796M10.6667 19.4627C10.6667 21.6718 8.8758 23.4627 6.66666 23.4627C4.45752 23.4627 2.66666 21.6718 2.66666 19.4627C2.66666 17.2536 4.45752 15.4627 6.66666 15.4627C8.8758 15.4627 10.6667 17.2536 10.6667 19.4627Z" stroke="#262D2E" stroke-width="3" stroke-linecap="round" stroke-linejoin="round"/>
</svg>
