<svg width="32" height="33" viewBox="0 0 32 33" fill="none" xmlns="http://www.w3.org/2000/svg">
<path d="M16 11.4627L24 7.46271L16 3.46271V16.796M10.6667 16.7827L3.33334 20.9694C3.12814 21.0857 2.95747 21.2543 2.83872 21.4581C2.71997 21.6619 2.65741 21.8935 2.65741 22.1294C2.65741 22.3652 2.71997 22.5969 2.83872 22.8007C2.95747 23.0044 3.12814 23.1731 3.33334 23.2894L14.6667 29.7694C15.0721 30.0034 15.5319 30.1266 16 30.1266C16.4681 30.1266 16.928 30.0034 17.3333 29.7694L28.6667 23.2894C28.8719 23.1731 29.0426 23.0044 29.1613 22.8007C29.28 22.5969 29.3426 22.3652 29.3426 22.1294C29.3426 21.8935 29.28 21.6619 29.1613 21.4581C29.0426 21.2543 28.8719 21.0857 28.6667 20.9694L21.3333 16.796M8.65334 17.9294L23.3467 26.3294M23.3467 17.9294L8.66667 26.3294" stroke="#262D2E" stroke-width="3" stroke-linecap="round" stroke-linejoin="round"/>
</svg>
