<svg width="79" height="78" viewBox="0 0 79 78" fill="none" xmlns="http://www.w3.org/2000/svg">
<path d="M32.1008 4.43826C34.8849 -1.47942 43.3027 -1.47942 46.0868 4.43827C47.8951 8.28176 52.4663 9.94552 56.322 8.16356C62.2586 5.41993 68.707 10.8308 67.0359 17.1536C65.9505 21.2602 68.3828 25.473 72.4819 26.5864C78.7931 28.3006 80.2549 36.5905 74.9106 40.3599C71.4395 42.8081 70.5947 47.5987 73.0192 51.0864C76.752 56.4564 72.5431 63.7464 66.0262 63.1986C61.7935 62.8429 58.067 65.9697 57.6824 70.1999C57.0902 76.7129 49.18 79.592 44.5399 74.9834C41.5261 71.9902 36.6616 71.9902 33.6478 74.9834C29.0077 79.592 21.0975 76.7129 20.5053 70.1999C20.1207 65.9698 16.3942 62.8429 12.1615 63.1986C5.6446 63.7464 1.43571 56.4564 5.16852 51.0864C7.59296 47.5987 6.74824 42.8081 3.27714 40.3599C-2.06719 36.5905 -0.605456 28.3006 5.70578 26.5864C9.80488 25.473 12.2371 21.2602 11.1518 17.1536C9.48073 10.8308 15.9291 5.41993 21.8657 8.16356C25.7214 9.94552 30.2926 8.28175 32.1008 4.43826Z" fill="#D45715"/>
<path d="M24 38.5H54M39 24V53" stroke="#F3ECE4" stroke-width="4" stroke-linecap="round"/>
</svg>
