<svg width="32" height="33" viewBox="0 0 32 33" fill="none" xmlns="http://www.w3.org/2000/svg">
<path d="M17.8667 3.46266H8C7.29276 3.46266 6.61448 3.74361 6.11438 4.24371C5.61428 4.74381 5.33333 5.42208 5.33333 6.12933V27.4627C5.33333 28.1699 5.61428 28.8482 6.11438 29.3483C6.61448 29.8484 7.29276 30.1293 8 30.1293H24C24.7072 30.1293 25.3855 29.8484 25.8856 29.3483C26.3857 28.8482 26.6667 28.1699 26.6667 27.4627V17.596M2.66667 8.79599H8M2.66667 14.1293H8M2.66667 19.4627H8M2.66667 24.796H8M28.504 8.29733C29.0351 7.76619 29.3335 7.04581 29.3335 6.29466C29.3335 5.54352 29.0351 4.82314 28.504 4.29199C27.9729 3.76085 27.2525 3.46246 26.5013 3.46246C25.7502 3.46246 25.0298 3.76085 24.4987 4.29199L17.8187 10.9747C17.5017 11.2915 17.2696 11.6831 17.144 12.1133L16.028 15.94C15.9945 16.0547 15.9925 16.1763 16.0222 16.2921C16.0519 16.4079 16.1121 16.5136 16.1966 16.5981C16.2811 16.6826 16.3868 16.7428 16.5025 16.7725C16.6183 16.8021 16.7399 16.8001 16.8547 16.7667L20.6813 15.6507C21.1116 15.525 21.5032 15.293 21.82 14.976L28.504 8.29733Z" stroke="#262D2E" stroke-width="3" stroke-linecap="round" stroke-linejoin="round"/>
</svg>
