<svg width="309" height="313" viewBox="0 0 309 313" fill="none" xmlns="http://www.w3.org/2000/svg">
<path d="M100.94 65.124C154.837 65.1243 199.38 119.374 199.38 187.46C199.38 255.546 154.837 309.796 100.94 309.796C47.0434 309.796 2.49988 255.547 2.49988 187.46C2.49991 119.373 47.0434 65.124 100.94 65.124Z" stroke="#3A5157" stroke-width="5"/>
<path d="M100.94 139.284C138.428 139.284 168.892 170.22 168.892 208.472C168.892 246.725 138.428 277.66 100.94 277.66C63.4523 277.66 32.9883 246.725 32.988 208.472C32.988 170.22 63.4521 139.284 100.94 139.284Z" stroke="#3A5157" stroke-width="5"/>
<path d="M161.504 207.648C161.504 199.641 159.959 191.711 156.956 184.313C153.954 176.916 149.554 170.194 144.006 164.531C138.459 158.869 131.873 154.378 124.625 151.314C117.377 148.249 109.609 146.672 101.764 146.672L101.764 207.648H161.504Z" fill="#D45715"/>
<rect x="103.852" y="2.5" width="202.648" height="202.648" stroke="#3A5157" stroke-width="5"/>
</svg>
