<svg width="32" height="33" viewBox="0 0 32 33" fill="none" xmlns="http://www.w3.org/2000/svg">
<path d="M6.66667 23.4627C6.66667 19.2192 8.35238 15.1496 11.353 12.149C14.3535 9.1484 18.4232 7.46269 22.6667 7.46269M6.66667 23.4627C5.19391 23.4627 4 24.6566 4 26.1294C4 27.6021 5.19391 28.796 6.66667 28.796C8.13943 28.796 9.33333 27.6021 9.33333 26.1294C9.33333 24.6566 8.13943 23.4627 6.66667 23.4627ZM22.6667 7.46269C22.6667 8.93545 23.8606 10.1294 25.3333 10.1294C26.8061 10.1294 28 8.93545 28 7.46269C28 5.98993 26.8061 4.79602 25.3333 4.79602C23.8606 4.79602 22.6667 5.98993 22.6667 7.46269ZM16.0453 17.704C15.9973 17.5834 15.9856 17.4514 16.0118 17.3243C16.038 17.1971 16.1008 17.0804 16.1926 16.9886C16.2844 16.8968 16.4011 16.834 16.5282 16.8078C16.6554 16.7816 16.7874 16.7933 16.908 16.8414L28.908 21.508C29.0367 21.5583 29.1465 21.6473 29.2224 21.7627C29.2983 21.8781 29.3365 22.0142 29.3316 22.1523C29.3268 22.2903 29.2792 22.4235 29.1954 22.5333C29.1117 22.6431 28.9959 22.7242 28.864 22.7654L24.272 24.1894C24.0648 24.2534 23.8764 24.367 23.723 24.5204C23.5697 24.6737 23.4561 24.8622 23.392 25.0694L21.9693 29.66C21.9282 29.7919 21.8471 29.9077 21.7373 29.9915C21.6274 30.0752 21.4943 30.1228 21.3563 30.1276C21.2182 30.1325 21.0821 30.0943 20.9667 30.0184C20.8513 29.9425 20.7623 29.8327 20.712 29.704L16.0453 17.704Z" stroke="#262D2E" stroke-width="3" stroke-linecap="round" stroke-linejoin="round"/>
</svg>
