<svg width="644" height="457" viewBox="0 0 644 457" fill="none" xmlns="http://www.w3.org/2000/svg">
<g clip-path="url(#clip0_318_1718)">
<path d="M38.0639 385.169L18.3201 368.451C20.578 355.048 26.0716 342.399 34.3238 331.603C34.9873 355.756 59.7302 371.932 68.2446 394.543C70.8462 401.616 71.8238 409.183 71.1051 416.685C70.3864 424.187 67.9897 431.431 64.0927 437.88L62.1064 456.127C51.3239 450.505 41.8877 442.611 34.448 432.988C27.0082 423.366 21.7418 412.244 19.0115 400.388C17.5456 393.722 16.9245 386.898 17.1629 380.077C27.2719 383.155 38.0639 385.169 38.0639 385.169Z" fill="#F2F2F2"/>
<path d="M591.512 417.147L605.3 395.251C618.879 395.616 632.163 399.293 644 405.961C620.19 409.992 607.637 436.766 586.45 448.359C579.815 451.924 572.462 453.95 564.938 454.285C557.413 454.621 549.91 453.258 542.984 450.297L524.649 450.877C528.707 439.409 535.201 428.957 543.685 420.242C552.169 411.527 562.44 404.756 573.791 400.395C580.183 398.012 586.849 396.444 593.633 395.728C591.999 406.173 591.512 417.147 591.512 417.147Z" fill="#F2F2F2"/>
<path d="M155.091 345.767L78.6431 341.279L89.1223 267.132L156.489 339.781L155.091 345.767Z" fill="#F2F2F2"/>
<path d="M145.361 421.412L67.5149 416.17L77.8946 348.769L145.712 416.182L145.361 421.412Z" fill="#F2F2F2"/>
<path d="M580.236 108.631V40.1403C580.236 34.9346 579.211 29.78 577.22 24.9706C575.229 20.1612 572.311 15.7913 568.632 12.1104C564.954 8.42943 560.586 5.50955 555.78 3.51744C550.973 1.52533 545.822 0.5 540.619 0.5H395.6C390.397 0.499999 385.246 1.52533 380.439 3.51744C375.633 5.50955 371.265 8.42943 367.587 12.1104C363.908 15.7913 360.99 20.1612 358.999 24.9706C357.008 29.78 355.983 34.9346 355.983 40.1403V415.883C355.983 426.396 360.157 436.479 367.587 443.913C375.016 451.347 385.093 455.523 395.6 455.523H540.619C551.126 455.523 561.203 451.347 568.632 443.913C576.062 436.479 580.236 426.397 580.236 415.883V157.383C580.898 157.383 581.534 157.12 582.002 156.651C582.471 156.182 582.734 155.546 582.734 154.883V111.131C582.734 110.468 582.471 109.832 582.003 109.363C581.534 108.894 580.898 108.631 580.236 108.631Z" fill="#3F3D56"/>
<path d="M571.804 40.4124V415.613C571.805 423.406 568.733 430.885 563.255 436.425C557.776 441.965 550.334 445.118 542.546 445.199C542.439 445.21 542.33 445.215 542.222 445.212H396.497C388.652 445.212 381.128 442.093 375.58 436.542C370.033 430.991 366.916 423.463 366.915 415.613V40.4124C366.916 32.5622 370.033 25.0338 375.58 19.483C381.128 13.9321 388.652 10.8133 396.497 10.8126H414.182C413.312 12.9488 412.981 15.2661 413.217 17.5605C413.453 19.855 414.249 22.0562 415.534 23.9707C416.82 25.8851 418.556 27.454 420.59 28.5393C422.624 29.6247 424.894 30.1932 427.199 30.1948H510.28C512.583 30.1885 514.849 29.6168 516.88 28.5298C518.911 27.4429 520.644 25.8739 521.928 23.9606C523.211 22.0472 524.006 19.8479 524.243 17.5556C524.479 15.2632 524.15 12.9479 523.283 10.8126H542.222C550.068 10.8133 557.592 13.9321 563.139 19.4829C568.687 25.0338 571.804 32.5622 571.804 40.4124Z" fill="white"/>
<path d="M539.721 436.053C539.721 439.94 539.599 443.795 539.354 447.617C539.247 447.63 539.14 447.635 539.032 447.632H393.311C386.718 447.632 380.313 445.428 375.114 441.371C369.915 437.314 366.219 431.636 364.613 425.238C364.331 424.121 364.118 422.988 363.976 421.845C363.811 420.581 363.728 419.308 363.729 418.033V250.827C374.942 251.381 386.081 252.956 397.008 255.53C398.079 255.777 399.142 256.039 400.197 256.309C400.264 256.324 400.332 256.347 400.399 256.362C401.47 256.631 402.532 256.916 403.588 257.208C426.115 263.399 447.262 273.817 465.902 287.908C466.972 288.709 468.035 289.533 469.091 290.365L469.293 290.522C471.059 291.915 472.798 293.343 474.51 294.806C474.892 295.128 475.273 295.458 475.648 295.795C476.568 296.588 477.489 297.397 478.387 298.214C498.265 316.116 514.044 338.103 524.646 362.67C524.998 363.471 525.334 364.28 525.671 365.089C525.806 365.418 525.941 365.748 526.075 366.077C526.203 366.377 526.322 366.677 526.442 366.976C535.242 388.94 539.75 412.39 539.721 436.053Z" fill="#3F3D56"/>
<path d="M356.785 146.947C355.891 146.946 355.033 146.59 354.401 145.957C353.769 145.325 353.413 144.467 353.412 143.572V120.627C353.412 119.732 353.768 118.874 354.4 118.241C355.033 117.608 355.89 117.252 356.785 117.252C357.679 117.252 358.537 117.608 359.169 118.241C359.802 118.874 360.157 119.732 360.157 120.627V143.572C360.156 144.467 359.8 145.325 359.168 145.957C358.536 146.59 357.679 146.946 356.785 146.947Z" fill="#3F3D56"/>
<path d="M356.11 102.405C355.216 102.404 354.359 102.048 353.727 101.416C353.095 100.783 352.739 99.9255 352.738 99.0309V76.0854C352.738 75.1904 353.093 74.3321 353.726 73.6993C354.358 73.0665 355.216 72.711 356.11 72.711C357.005 72.711 357.862 73.0665 358.495 73.6993C359.127 74.3321 359.482 75.1904 359.482 76.0854V99.0309C359.481 99.9255 359.126 100.783 358.494 101.416C357.861 102.048 357.004 102.404 356.11 102.405Z" fill="#3F3D56"/>
<path d="M445.814 14.6723C445.815 13.7777 446.171 12.92 446.803 12.2874C447.435 11.6548 448.292 11.299 449.187 11.2979H472.118C472.562 11.2973 473.001 11.384 473.41 11.5533C473.82 11.7226 474.193 11.9711 474.506 12.2845C474.82 12.5979 475.069 12.9701 475.239 13.3798C475.408 13.7895 475.496 14.2287 475.496 14.6723C475.496 15.1158 475.408 15.555 475.239 15.9647C475.069 16.3745 474.82 16.7467 474.506 17.0601C474.193 17.3735 473.82 17.6219 473.41 17.7912C473.001 17.9605 472.562 18.0473 472.118 18.0466H449.187C448.292 18.0456 447.435 17.6897 446.803 17.0571C446.171 16.4245 445.815 15.5669 445.814 14.6723Z" fill="white"/>
<path d="M356.785 186.089C355.891 186.088 355.033 185.732 354.401 185.1C353.769 184.467 353.413 183.609 353.412 182.715V159.769C353.412 158.874 353.768 158.016 354.4 157.383C355.033 156.75 355.89 156.395 356.785 156.395C357.679 156.395 358.537 156.75 359.169 157.383C359.802 158.016 360.157 158.874 360.157 159.769V182.715C360.156 183.609 359.8 184.467 359.168 185.1C358.536 185.732 357.679 186.088 356.785 186.089Z" fill="#3F3D56"/>
<path d="M484.933 18.0466C486.796 18.0466 488.306 16.5359 488.306 14.6723C488.306 12.8087 486.796 11.2979 484.933 11.2979C483.071 11.2979 481.561 12.8087 481.561 14.6723C481.561 16.5359 483.071 18.0466 484.933 18.0466Z" fill="white"/>
<path opacity="0.2" d="M472.481 419.426C472.481 412.42 473.859 405.482 476.538 399.009C479.217 392.536 483.144 386.655 488.096 381.701C493.047 376.747 498.925 372.817 505.394 370.136C511.863 367.456 518.797 366.077 525.798 366.077H526.075C525.941 365.748 525.806 365.418 525.671 365.089C525.334 364.28 524.998 363.471 524.646 362.67H472.481V295.795H475.648C475.273 295.457 474.892 295.128 474.51 294.806C472.796 293.345 471.057 291.917 469.293 290.522L469.091 290.365V292.387H403.588V257.208C402.532 256.916 401.47 256.631 400.399 256.362C400.332 256.347 400.264 256.324 400.197 256.309V292.387H366.918V295.795H400.197V362.67H366.918V366.077H400.197V419.426H367.165C367.307 420.569 367.52 421.702 367.801 422.819H400.197V445.213H403.588V422.819H469.091V445.213H472.482V422.819H529.631V419.426H472.481ZM469.091 419.426H403.588V366.077H469.091V419.426ZM469.091 362.67H403.588V361.336C403.588 343.954 410.489 327.283 422.773 314.991C435.057 302.7 451.718 295.795 469.091 295.795V362.67Z" fill="#262D2E"/>
<path d="M178.636 174.852L142.281 454.68L142.049 456.463H140.537L140.769 454.68L177.154 174.657L178.636 174.852Z" fill="#E5E5E5"/>
<path d="M102.946 175.204L62.8554 454.71L62.6009 456.493H61.0889L61.3434 454.71L101.464 174.994L102.946 175.204Z" fill="#E5E5E5"/>
<path d="M235.164 456.425L233.607 456.433L233.128 454.65L155.574 166.411L157.019 166.021L234.678 454.65L235.164 456.425Z" fill="#3F3D56"/>
<path d="M231.88 166.01L230.44 166.419L312.167 454.884L313.607 454.475L231.88 166.01Z" fill="#3F3D56"/>
<path d="M298.007 401.96L223.899 417.3L224.202 418.768L298.31 403.427L298.007 401.96Z" fill="#3F3D56"/>
<path d="M285.158 356.962L211.05 372.303L211.353 373.77L285.462 358.429L285.158 356.962Z" fill="#3F3D56"/>
<path d="M272.319 311.963L198.727 326.214L199.012 327.684L272.603 313.433L272.319 311.963Z" fill="#3F3D56"/>
<path d="M259.469 266.974L187.48 281.208L187.771 282.678L259.759 268.443L259.469 266.974Z" fill="#3F3D56"/>
<path d="M101.68 175.152C100.555 167.793 102.396 160.289 106.8 154.289C111.205 148.289 117.81 144.286 125.164 143.159C132.519 142.033 140.019 143.876 146.015 148.283C152.011 152.689 156.012 159.299 157.138 166.658L155.658 166.884C155.132 163.434 153.932 160.121 152.126 157.135C150.32 154.148 147.943 151.548 145.132 149.481C142.321 147.414 139.131 145.921 135.743 145.088C132.356 144.255 128.837 144.098 125.389 144.627C121.941 145.155 118.63 146.357 115.647 148.166C112.663 149.975 110.065 152.354 108.001 155.168C105.937 157.981 104.447 161.174 103.616 164.564C102.785 167.955 102.63 171.475 103.16 174.925L101.68 175.152Z" fill="#3F3D56"/>
<path d="M176.653 175.487C176.046 171.85 176.162 168.13 176.993 164.538C177.824 160.946 179.354 157.553 181.495 154.553C183.637 151.553 186.348 149.005 189.474 147.053C192.6 145.102 196.08 143.786 199.714 143.18C203.349 142.575 207.067 142.691 210.657 143.524C214.246 144.356 217.636 145.888 220.634 148.032C223.632 150.176 226.178 152.89 228.127 156.018C230.076 159.147 231.39 162.629 231.994 166.266L230.518 166.512C229.358 159.563 225.488 153.36 219.758 149.266C214.029 145.172 206.909 143.522 199.964 144.68C193.019 145.837 186.817 149.706 182.723 155.437C178.629 161.168 176.976 168.292 178.129 175.241L176.653 175.487Z" fill="#3F3D56"/>
<path d="M254.001 236.611L239.616 271.629L286.487 271.289L281.721 236.533L254.001 236.611Z" fill="#FFB6B6"/>
<path d="M265.447 397.365L272.399 398.38L279.618 372.031L269.357 370.534L265.447 397.365Z" fill="#FFB6B6"/>
<path d="M264.223 393.682L275.309 394.63L274.622 399.341L284.018 408.086C284.482 408.518 284.796 409.087 284.914 409.71C285.032 410.333 284.948 410.978 284.674 411.55C284.4 412.122 283.95 412.591 283.391 412.889C282.831 413.187 282.191 413.299 281.564 413.207L268.48 411.297L266.904 406.308L265.345 410.84L260.411 410.12L264.223 393.682Z" fill="#2F2E41"/>
<path d="M185.103 377.904L190.649 382.22L209.923 362.867L201.738 356.499L185.103 377.904Z" fill="#FFB6B6"/>
<path d="M185.855 374.097L195.029 380.395L192.108 384.154L195.967 396.399C196.158 397.004 196.15 397.654 195.945 398.254C195.741 398.855 195.35 399.374 194.829 399.736C194.309 400.098 193.687 400.284 193.053 400.267C192.419 400.25 191.808 400.031 191.308 399.642L180.87 391.52L181.96 386.402L178.368 389.573L174.433 386.511L185.855 374.097Z" fill="#2F2E41"/>
<path d="M242.262 263.32L237.646 269.439L225.359 322.929L197.431 360.671L206.819 369.691L242.441 335.112L259.922 298.166L268.767 332.292L266.521 377.979L281.491 377.23C285.549 324.21 291.896 269.657 284.42 254.336C279.492 258.637 273.74 261.887 267.514 263.887C261.288 265.887 254.72 266.595 248.211 265.968L242.262 263.32Z" fill="#2F2E41"/>
<path d="M266.972 179.982L278.782 192.905C281.374 195.741 283.017 199.315 283.482 203.13C283.694 204.862 283.658 206.616 283.378 208.338L280.832 227.002L285.323 255.463C285.323 255.463 278.922 259.369 266.61 267.446C261.585 270.743 238.137 270.69 238.166 269.693C238.299 265.078 242.425 252.64 243.406 237.488C244.616 218.785 243.029 196.463 247.148 185.809C252.177 172.803 266.972 179.982 266.972 179.982Z" fill="#D45715"/>
<path d="M226.443 262.789C226.958 262.039 227.303 261.185 227.453 260.287C227.602 259.389 227.554 258.469 227.31 257.593C227.066 256.716 226.633 255.903 226.041 255.212C225.449 254.52 224.713 253.967 223.885 253.591L224.347 239.372L215.779 236.983L215.409 257.074C214.87 258.508 214.876 260.09 215.425 261.521C215.974 262.951 217.029 264.131 218.389 264.835C219.749 265.539 221.32 265.72 222.804 265.343C224.289 264.966 225.583 264.057 226.443 262.789Z" fill="#FFB6B6"/>
<path d="M215.014 205.386C215.267 204.724 215.655 204.121 216.153 203.616C216.65 203.111 217.248 202.715 217.906 202.453C222.466 200.536 242.181 184.416 242.907 184.719L249.166 181.628C249.397 181.631 255.562 181.776 258.587 185.208C259.216 185.933 259.68 186.785 259.949 187.706C260.217 188.627 260.283 189.596 260.142 190.545C259.257 198.717 231.309 217.075 228.347 216.951L225.209 240.155L226.43 249.02L215 249.345L211.478 236.292C210.973 235.341 210.334 217.31 215.014 205.386Z" fill="#D45715"/>
<path d="M260.836 192.991C261.761 186.647 258.2 180.875 252.882 180.098C247.565 179.322 242.504 183.836 241.579 190.18C240.654 196.525 244.215 202.297 249.533 203.073C254.851 203.849 259.912 199.336 260.836 192.991Z" fill="#D45715"/>
<path d="M174.923 234.472L174.633 233.002L244.154 217.266V218.763L174.923 234.472Z" fill="#3F3D56"/>
<path d="M482.691 128.625H456.028C450.277 128.625 445.614 133.291 445.614 139.046V139.046C445.614 144.801 450.277 149.466 456.028 149.466H482.691C488.443 149.466 493.106 144.801 493.106 139.046C493.106 133.291 488.443 128.625 482.691 128.625Z" fill="#E6E6E6"/>
<path d="M532.159 170.307H406.561C400.81 170.307 396.147 174.972 396.147 180.727C396.147 186.482 400.81 191.148 406.561 191.148H532.159C537.91 191.148 542.573 186.482 542.573 180.727C542.573 174.972 537.91 170.307 532.159 170.307Z" fill="#E6E6E6"/>
<path d="M478.266 201.503H352.668C346.916 201.503 342.254 206.168 342.254 211.923V211.923C342.254 217.678 346.916 222.344 352.668 222.344H478.266C484.017 222.344 488.68 217.678 488.68 211.923C488.68 206.168 484.017 201.503 478.266 201.503Z" fill="#D45715"/>
<path d="M643.823 455.377C643.823 455.494 643.801 455.61 643.756 455.718C643.711 455.826 643.646 455.925 643.563 456.008C643.48 456.09 643.382 456.156 643.273 456.201C643.165 456.245 643.049 456.268 642.932 456.268L199.293 456.425L197.736 456.433L106.177 456.463H104.665L26.7296 456.493H25.2176L0.890739 456.5C0.6545 456.5 0.427935 456.406 0.26089 456.239C0.093844 456.072 0 455.845 0 455.609C0 455.372 0.093844 455.146 0.26089 454.979C0.427935 454.811 0.6545 454.717 0.890739 454.717L25.4721 454.71H26.9841L104.897 454.68H106.409L197.257 454.65H198.806L276.218 454.62H277.236L642.932 454.485C643.049 454.485 643.165 454.508 643.274 454.552C643.382 454.597 643.48 454.663 643.563 454.746C643.646 454.828 643.711 454.927 643.756 455.035C643.801 455.143 643.823 455.259 643.823 455.377Z" fill="#CACACA"/>
<path d="M279.469 167.078C277.235 170.048 274.056 172.168 270.456 173.089C266.857 174.01 263.051 173.677 259.666 172.145C256.281 170.612 253.519 167.972 251.833 164.659C250.148 161.346 249.641 157.557 250.395 153.917C251.15 150.277 253.12 147.002 255.983 144.632C258.846 142.263 262.43 140.939 266.144 140.879C269.859 140.82 273.484 142.028 276.421 144.305C279.357 146.582 281.432 149.792 282.302 153.406C282.349 153.602 282.389 153.797 282.427 153.999C282.887 156.265 282.861 158.602 282.351 160.856C281.841 163.111 280.859 165.232 279.469 167.078Z" fill="#FFB6B6"/>
<path d="M283.724 154.189C283.312 152.138 283.467 153.198 283.047 151.153C283.134 152.143 282.918 153.135 282.427 153.999L263.162 151.187L264.796 139.982C270.766 138.567 276.562 137.468 279.291 142.097C282.261 142.531 284.938 144.128 286.731 146.536C288.525 148.944 289.29 151.966 288.856 154.938L283.724 154.189Z" fill="#2F2E41"/>
<path d="M272.353 184.341C272.369 184.131 272.378 183.913 272.378 183.701C272.342 182.141 272.139 180.589 271.775 179.072C271.447 177.427 271.114 175.774 270.779 174.128C271.09 177.072 270.432 180.038 268.904 182.574C266.022 179.564 267.928 175.209 263.676 174.588C253.455 173.096 245.138 162.127 246.63 151.893C248.121 141.665 253.621 134.657 263.842 136.149C274.071 137.642 281.684 143.537 280.392 153.793C267.369 154.92 274.882 183.651 272.353 184.341Z" fill="#2F2E41"/>
<path d="M249.864 145.485C253.635 145.485 256.691 142.426 256.691 138.654C256.691 134.881 253.635 131.822 249.864 131.822C246.094 131.822 243.037 134.881 243.037 138.654C243.037 142.426 246.094 145.485 249.864 145.485Z" fill="#2F2E41"/>
<path d="M257.963 133.013C257.326 131.635 256.359 130.434 255.148 129.519C253.937 128.604 252.519 128.001 251.02 127.765C252.076 128.243 252.999 128.973 253.706 129.892C254.414 130.81 254.885 131.889 255.077 133.033C255.27 134.176 255.179 135.35 254.811 136.45C254.444 137.55 253.812 138.543 252.971 139.341L254.351 138.153C254.727 138.474 255.196 138.666 255.689 138.701C256.182 138.737 256.674 138.613 257.092 138.349C257.502 138.073 257.843 137.708 258.092 137.28C258.34 136.853 258.489 136.375 258.526 135.882C258.591 134.893 258.397 133.904 257.963 133.013Z" fill="#2F2E41"/>
<path d="M344.869 205.265C344.057 204.854 343.165 204.626 342.256 204.597C341.347 204.568 340.443 204.738 339.606 205.097C338.77 205.455 338.023 205.993 337.417 206.672C336.811 207.35 336.361 208.154 336.099 209.025L321.952 210.459L320.727 219.274L340.676 216.968C342.168 217.312 343.735 217.095 345.079 216.36C346.422 215.625 347.45 214.423 347.967 212.98C348.484 211.538 348.454 209.956 347.883 208.534C347.312 207.112 346.239 205.949 344.869 205.265Z" fill="#FFB6B6"/>
<path d="M289.531 224.236C288.841 224.073 288.192 223.769 287.626 223.342C287.059 222.916 286.588 222.376 286.241 221.758C283.735 217.491 265.145 200.084 265.348 199.324L261.454 193.528C261.426 193.299 260.75 187.165 263.747 183.709C264.381 182.989 265.163 182.415 266.04 182.026C266.917 181.637 267.867 181.443 268.826 181.457C277.039 181.248 297.687 207.256 297.959 210.21L322.614 209.5L331.232 207.11L333.075 218.401L320.614 223.63C319.739 224.259 301.964 227.29 289.531 224.236Z" fill="#D45715"/>
</g>
<defs>
<clipPath id="clip0_318_1718">
<rect width="644" height="456" fill="white" transform="translate(0 0.5)"/>
</clipPath>
</defs>
</svg>
