<svg width="431" height="328" viewBox="0 0 431 328" fill="none" xmlns="http://www.w3.org/2000/svg">
<g clip-path="url(#clip0_318_1818)">
<path d="M317.744 225.556C317.737 244.568 312.455 263.203 302.488 279.381C292.521 295.559 278.261 308.642 261.301 317.169C260.433 317.606 259.556 318.031 258.671 318.444C235.779 329.088 209.776 330.909 185.629 323.561C183.259 322.835 180.926 322.028 178.631 321.138C157.642 313.003 139.916 298.159 128.202 278.906C116.487 259.653 111.438 237.066 113.836 214.646C116.234 192.225 125.946 171.223 141.466 154.895C156.987 138.566 177.449 127.822 199.682 124.328C204.915 123.517 210.203 123.11 215.498 123.112C271.968 123.112 317.744 168.977 317.744 225.556Z" fill="#F2F2F2"/>
<path d="M325.161 240.156C340.404 223.575 348.247 198.75 340.028 177.765C327.92 199.067 308.682 215.392 285.717 223.85C276.849 227.08 266.65 229.747 261.833 237.877C258.835 242.935 258.623 249.266 259.981 254.989C261.339 260.712 264.13 265.975 266.893 271.166L266.91 272.634C288.496 266.278 309.919 256.738 325.161 240.156Z" fill="#E6E6E6"/>
<path d="M339.57 177.877C336.982 196.355 328.65 213.546 315.755 227.009C312.975 229.877 309.906 232.543 306.359 234.414C302.887 236.211 298.998 237.044 295.096 236.826C291.453 236.696 287.743 236.14 284.132 236.899C280.327 237.7 277.316 240.162 275.362 243.483C272.972 247.546 272.182 252.227 271.568 256.832C270.886 261.945 270.258 267.267 267.344 271.667C266.991 272.2 267.837 272.718 268.19 272.186C273.26 264.53 271.552 254.753 274.97 246.498C276.564 242.647 279.328 239.253 283.462 238.087C287.077 237.066 290.904 237.636 294.591 237.8C298.462 237.972 302.147 237.495 305.691 235.853C309.317 234.173 312.497 231.621 315.338 228.837C321.733 222.477 327.09 215.148 331.213 207.121C335.97 197.985 339.131 188.101 340.561 177.897C340.649 177.265 339.657 177.25 339.57 177.877Z" fill="white"/>
<path d="M320.162 222.919C322.71 224.78 325.835 225.673 328.98 225.438C332.124 225.203 335.083 223.856 337.328 221.638C337.78 221.187 337.103 220.461 336.65 220.912C334.563 222.982 331.807 224.237 328.878 224.449C325.95 224.662 323.042 223.819 320.68 222.072C320.166 221.693 319.651 222.542 320.162 222.919Z" fill="white"/>
<path d="M296.934 237.136C295.878 230.765 297.258 224.229 300.799 218.832C301.15 218.298 300.304 217.78 299.953 218.314C296.279 223.937 294.857 230.741 295.97 237.368C296.076 238 297.04 237.764 296.934 237.136Z" fill="white"/>
<path d="M334.658 197.89C333.523 197.376 332.532 196.587 331.776 195.594C331.02 194.602 330.522 193.437 330.326 192.204C330.227 191.571 329.264 191.808 329.362 192.436C329.584 193.798 330.136 195.084 330.969 196.182C331.802 197.281 332.891 198.158 334.141 198.737C334.254 198.802 334.388 198.821 334.514 198.79C334.641 198.76 334.751 198.682 334.823 198.573C334.891 198.46 334.911 198.325 334.881 198.198C334.85 198.07 334.77 197.959 334.658 197.89Z" fill="white"/>
<path d="M267.649 153.968C267.699 154.364 267.749 154.761 267.793 155.164C268.442 160.502 268.656 165.884 268.434 171.257C268.424 171.672 268.407 172.094 268.384 172.508C267.713 185.447 264.649 198.148 259.35 209.967C257.237 214.667 254.77 219.2 251.97 223.526C248.103 229.5 243.437 235.669 241.813 242.376C241.636 243.074 241.502 243.783 241.413 244.497L265.121 272.542C265.207 272.578 265.286 272.621 265.373 272.658L266.268 273.821C266.428 273.608 266.589 273.383 266.749 273.17C266.843 273.047 266.931 272.918 267.024 272.795C267.084 272.71 267.145 272.626 267.204 272.554C267.224 272.526 267.244 272.497 267.258 272.475C267.318 272.402 267.365 272.329 267.418 272.262C268.323 271.01 269.221 269.75 270.112 268.481C270.118 268.476 270.118 268.476 270.119 268.464C276.882 258.78 282.896 248.445 287.154 237.524C287.282 237.196 287.417 236.862 287.534 236.52C289.426 231.587 290.912 226.507 291.978 221.331C292.553 218.495 292.984 215.631 293.269 212.752C293.993 205.309 293.544 197.799 291.938 190.497C288.735 175.94 280.922 162.572 268.596 154.57C268.281 154.365 267.97 154.167 267.649 153.968Z" fill="#E6E6E6"/>
<path d="M267.347 154.332C276.384 170.647 280.061 189.399 277.856 207.927C277.359 211.893 276.511 215.874 274.803 219.508C273.111 223.037 270.506 226.048 267.259 228.228C264.273 230.321 260.976 232.116 258.55 234.9C255.992 237.834 255.067 241.617 255.503 245.447C256.037 250.133 258.219 254.347 260.495 258.395C263.023 262.888 265.72 267.516 266.037 272.787C266.076 273.426 267.063 273.329 267.024 272.691C266.472 263.519 259.233 256.744 257.002 248.092C255.961 244.054 256.128 239.678 258.728 236.252C261.002 233.257 264.4 231.403 267.442 229.31C270.636 227.112 273.292 224.508 275.135 221.059C277.02 217.53 278.025 213.575 278.621 209.638C279.905 200.702 279.779 191.619 278.247 182.722C276.555 172.559 273.14 162.76 268.15 153.75C267.841 153.192 267.04 153.778 267.347 154.332Z" fill="white"/>
<path d="M278.917 202.003C282.069 201.952 285.101 200.779 287.471 198.695C289.84 196.611 291.393 193.75 291.853 190.625C291.943 189.992 290.966 189.821 290.875 190.455C290.453 193.366 289.006 196.03 286.796 197.967C284.585 199.903 281.757 200.984 278.821 201.014C278.183 201.022 278.282 202.01 278.917 202.003Z" fill="white"/>
<path d="M268.913 227.366C264.242 222.916 261.416 216.865 261 210.421C260.959 209.782 259.973 209.879 260.013 210.517C260.459 217.222 263.412 223.513 268.283 228.133C268.747 228.574 269.375 227.804 268.913 227.366Z" fill="white"/>
<path d="M275.451 173.274C274.235 173.548 272.971 173.516 271.77 173.18C270.57 172.844 269.472 172.214 268.575 171.347C268.116 170.902 267.489 171.672 267.945 172.115C268.941 173.067 270.154 173.761 271.479 174.136C272.805 174.51 274.201 174.554 275.547 174.263C275.676 174.246 275.794 174.181 275.877 174.08C275.96 173.979 276.001 173.85 275.993 173.72C275.979 173.589 275.915 173.469 275.813 173.386C275.712 173.302 275.582 173.262 275.451 173.274Z" fill="white"/>
<path d="M430.46 19.9018H0.53965C0.395434 19.8986 0.258203 19.839 0.15734 19.7356C0.0564761 19.6323 0 19.4935 0 19.349C0 19.2045 0.0564761 19.0657 0.15734 18.9624C0.258203 18.859 0.395434 18.7994 0.53965 18.7962H430.46C430.604 18.7994 430.742 18.859 430.843 18.9624C430.943 19.0657 431 19.2045 431 19.349C431 19.4935 430.943 19.6323 430.843 19.7356C430.742 19.839 430.604 19.8986 430.46 19.9018Z" fill="#CACACA"/>
<path d="M12.688 12.1622C15.967 12.1622 18.6251 9.43962 18.6251 6.08112C18.6251 2.72261 15.967 0 12.688 0C9.40908 0 6.75098 2.72261 6.75098 6.08112C6.75098 9.43962 9.40908 12.1622 12.688 12.1622Z" fill="#3A5157"/>
<path d="M33.1978 12.1622C36.4767 12.1622 39.1348 9.43962 39.1348 6.08112C39.1348 2.72261 36.4767 0 33.1978 0C29.9188 0 27.2607 2.72261 27.2607 6.08112C27.2607 9.43962 29.9188 12.1622 33.1978 12.1622Z" fill="#3A5157"/>
<path d="M53.7075 12.1622C56.9865 12.1622 59.6446 9.43962 59.6446 6.08112C59.6446 2.72261 56.9865 0 53.7075 0C50.4286 0 47.7705 2.72261 47.7705 6.08112C47.7705 9.43962 50.4286 12.1622 53.7075 12.1622Z" fill="#3A5157"/>
<path d="M418.172 3.71961H403.599C403.311 3.71326 403.036 3.59399 402.834 3.38733C402.633 3.18067 402.52 2.90306 402.52 2.61395C402.52 2.32485 402.633 2.04724 402.834 1.84058C403.036 1.63392 403.311 1.51465 403.599 1.5083H418.172C418.46 1.51465 418.735 1.63392 418.937 1.84058C419.138 2.04724 419.251 2.32485 419.251 2.61395C419.251 2.90306 419.138 3.18067 418.937 3.38733C418.735 3.59399 418.46 3.71326 418.172 3.71961Z" fill="#3A5157"/>
<path d="M418.172 7.86583H403.599C403.311 7.85944 403.036 7.74016 402.834 7.5335C402.633 7.32685 402.52 7.04925 402.52 6.76017C402.52 6.47109 402.633 6.1935 402.834 5.98684C403.036 5.78018 403.311 5.66089 403.599 5.65451H418.172C418.46 5.66089 418.735 5.78018 418.936 5.98684C419.138 6.1935 419.251 6.47109 419.251 6.76017C419.251 7.04925 419.138 7.32685 418.936 7.5335C418.735 7.74016 418.46 7.85944 418.172 7.86583Z" fill="#3A5157"/>
<path d="M418.172 12.0121H403.599C403.311 12.0057 403.036 11.8864 402.834 11.6797C402.633 11.4731 402.52 11.1955 402.52 10.9064C402.52 10.6173 402.633 10.3397 402.834 10.1331C403.036 9.92642 403.311 9.80713 403.599 9.80075H418.172C418.46 9.80713 418.735 9.92642 418.936 10.1331C419.138 10.3397 419.251 10.6173 419.251 10.9064C419.251 11.1955 419.138 11.4731 418.936 11.6797C418.735 11.8864 418.46 12.0057 418.172 12.0121Z" fill="#3A5157"/>
<path d="M116.561 267.237C104.4 254.008 98.1429 234.202 104.7 217.46C114.36 234.455 129.709 247.479 148.031 254.228C155.106 256.805 163.243 258.933 167.087 265.419C169.478 269.454 169.648 274.506 168.564 279.072C167.48 283.638 165.254 287.837 163.049 291.978L163.036 293.15C145.814 288.078 128.722 280.467 116.561 267.237Z" fill="#E6E6E6"/>
<path d="M105.065 217.549C107.13 232.291 113.778 246.007 124.065 256.748C126.239 259.1 128.769 261.094 131.562 262.656C134.332 264.09 137.435 264.754 140.548 264.58C143.454 264.477 146.415 264.033 149.295 264.639C150.765 264.971 152.148 265.611 153.354 266.516C154.56 267.421 155.561 268.571 156.292 269.891C158.199 273.133 158.83 276.868 159.32 280.542C159.864 284.621 160.364 288.867 162.689 292.378C162.971 292.803 162.296 293.216 162.014 292.792C157.969 286.683 159.332 278.883 156.605 272.298C155.333 269.225 153.129 266.517 149.83 265.586C146.945 264.772 143.892 265.227 140.951 265.357C137.916 265.572 134.876 265.038 132.094 263.804C129.231 262.389 126.628 260.496 124.398 258.207C119.296 253.132 115.022 247.285 111.732 240.881C107.937 233.592 105.415 225.706 104.274 217.565C104.204 217.061 104.995 217.048 105.065 217.549Z" fill="white"/>
<path d="M120.55 253.485C118.517 254.97 116.023 255.682 113.514 255.495C111.006 255.308 108.645 254.233 106.854 252.463C106.493 252.103 107.033 251.524 107.395 251.884C109.06 253.535 111.259 254.536 113.595 254.706C115.932 254.876 118.252 254.203 120.137 252.809C120.547 252.507 120.957 253.184 120.55 253.485Z" fill="white"/>
<path d="M139.082 264.827C139.924 259.744 138.823 254.53 135.998 250.224C135.718 249.798 136.393 249.385 136.673 249.811C139.604 254.297 140.739 259.725 139.851 265.013C139.766 265.517 138.997 265.329 139.082 264.827Z" fill="white"/>
<path d="M108.984 233.516C109.89 233.106 110.68 232.476 111.283 231.684C111.887 230.893 112.284 229.963 112.441 228.979C112.519 228.474 113.288 228.663 113.21 229.165C113.032 230.251 112.592 231.277 111.927 232.153C111.262 233.03 110.394 233.73 109.397 234.192C109.306 234.243 109.2 234.259 109.099 234.234C108.998 234.21 108.91 234.148 108.853 234.061C108.799 233.971 108.782 233.863 108.806 233.761C108.831 233.659 108.895 233.571 108.984 233.516Z" fill="white"/>
<path d="M162.447 198.473C162.406 198.79 162.366 199.106 162.331 199.427C161.814 203.686 161.643 207.98 161.82 212.267C161.828 212.599 161.842 212.935 161.86 213.265C162.396 223.588 164.84 233.722 169.068 243.151C170.754 246.901 172.722 250.518 174.955 253.969C178.04 258.736 181.764 263.657 183.059 269.009C183.2 269.566 183.307 270.131 183.379 270.701L164.463 293.076C164.395 293.105 164.331 293.139 164.263 293.168L163.548 294.096C163.42 293.926 163.292 293.747 163.164 293.577C163.09 293.479 163.02 293.376 162.945 293.277C162.897 293.21 162.849 293.143 162.801 293.085C162.785 293.063 162.769 293.04 162.758 293.022C162.711 292.965 162.673 292.906 162.631 292.852C161.908 291.854 161.192 290.848 160.481 289.836C160.476 289.832 160.476 289.832 160.475 289.823C155.08 282.096 150.282 273.851 146.885 265.137C146.782 264.875 146.675 264.609 146.581 264.337C145.072 260.401 143.886 256.347 143.036 252.218C142.577 249.955 142.233 247.671 142.006 245.373C141.428 239.435 141.787 233.444 143.068 227.617C145.623 216.004 151.857 205.338 161.691 198.954C161.942 198.79 162.19 198.632 162.447 198.473Z" fill="#E6E6E6"/>
<path d="M162.688 198.764C155.477 211.78 152.543 226.742 154.303 241.524C154.625 244.713 155.447 247.831 156.739 250.763C158.089 253.579 160.167 255.982 162.757 257.721C165.14 259.391 167.77 260.822 169.706 263.044C170.68 264.195 171.4 265.541 171.819 266.991C172.238 268.441 172.346 269.963 172.137 271.458C171.711 275.197 169.97 278.56 168.154 281.789C166.137 285.374 163.985 289.066 163.732 293.272C163.701 293.781 162.914 293.704 162.945 293.195C163.385 285.877 169.161 280.472 170.941 273.569C171.771 270.347 171.638 266.856 169.564 264.123C167.75 261.733 165.039 260.254 162.612 258.584C160.06 256.924 157.953 254.664 156.474 252.001C155.038 249.144 154.097 246.063 153.692 242.889C152.668 235.76 152.769 228.513 153.991 221.415C155.341 213.306 158.065 205.488 162.046 198.3C162.293 197.855 162.933 198.322 162.688 198.764Z" fill="white"/>
<path d="M153.457 236.798C150.941 236.757 148.522 235.821 146.632 234.158C144.741 232.495 143.502 230.213 143.136 227.72C143.063 227.215 143.843 227.078 143.916 227.584C144.252 229.907 145.407 232.032 147.17 233.577C148.934 235.122 151.191 235.984 153.533 236.009C154.042 236.015 153.963 236.803 153.457 236.798Z" fill="white"/>
<path d="M161.438 257.033C165.164 253.483 167.419 248.655 167.751 243.513C167.783 243.004 168.571 243.081 168.538 243.59C168.183 248.94 165.827 253.959 161.94 257.645C161.57 257.996 161.069 257.382 161.438 257.033Z" fill="white"/>
<path d="M156.221 213.876C157.191 214.095 158.2 214.07 159.158 213.801C160.116 213.533 160.992 213.031 161.708 212.339C162.074 211.984 162.574 212.598 162.21 212.952C161.416 213.712 160.447 214.265 159.39 214.564C158.333 214.863 157.219 214.898 156.145 214.665C156.042 214.652 155.948 214.6 155.882 214.519C155.816 214.439 155.783 214.336 155.789 214.233C155.8 214.128 155.851 214.032 155.932 213.966C156.013 213.899 156.117 213.867 156.221 213.876Z" fill="white"/>
<path d="M398.577 58.8722H60.7719C60.2713 58.8728 59.7754 58.7745 59.3127 58.583C58.85 58.3914 58.4295 58.1104 58.0753 57.7559C57.7211 57.4014 57.4401 56.9805 57.2484 56.5171C57.0567 56.0537 56.958 55.557 56.958 55.0554C56.958 54.5538 57.0567 54.0572 57.2484 53.5938C57.4401 53.1304 57.7211 52.7095 58.0753 52.355C58.4295 52.0005 58.85 51.7195 59.3127 51.5279C59.7754 51.3364 60.2713 51.2381 60.7719 51.2387H398.577C399.077 51.2381 399.573 51.3364 400.036 51.5279C400.499 51.7195 400.919 52.0005 401.273 52.355C401.628 52.7095 401.909 53.1304 402.1 53.5938C402.292 54.0572 402.391 54.5538 402.391 55.0554C402.391 55.557 402.292 56.0537 402.1 56.5171C401.909 56.9805 401.628 57.4014 401.273 57.7559C400.919 58.1104 400.499 58.3914 400.036 58.583C399.573 58.7745 399.077 58.8728 398.577 58.8722Z" fill="#D45715"/>
<path d="M398.577 73.9541H60.7717C59.7614 73.9541 58.7924 73.552 58.0779 72.8362C57.3635 72.1204 56.9622 71.1495 56.9622 70.1372C56.9622 69.1249 57.3635 68.154 58.0779 67.4382C58.7924 66.7224 59.7614 66.3202 60.7717 66.3202H398.577C399.587 66.3202 400.556 66.7224 401.27 67.4382C401.985 68.154 402.386 69.1249 402.386 70.1372C402.386 71.1495 401.985 72.1204 401.27 72.8362C400.556 73.552 399.587 73.9541 398.577 73.9541Z" fill="#D45715"/>
<path d="M332.404 89.0361H60.7717C59.7614 89.0361 58.7924 88.6339 58.0779 87.9181C57.3635 87.2023 56.9622 86.2314 56.9622 85.2191C56.9622 84.2068 57.3635 83.2359 58.0779 82.5201C58.7924 81.8043 59.7614 81.4022 60.7717 81.4022H332.404C333.415 81.4022 334.384 81.8043 335.098 82.5201C335.812 83.2359 336.214 84.2068 336.214 85.2191C336.214 86.2314 335.812 87.2023 335.098 87.9181C334.384 88.6339 333.415 89.0361 332.404 89.0361Z" fill="#D45715"/>
<path d="M376.502 212.435C380.309 215.024 384.541 217.938 385.768 222.664C386.05 223.673 386.125 224.729 385.989 225.769C385.853 226.808 385.509 227.809 384.977 228.712C384 230.343 382.545 231.625 381.125 232.861C379.438 234.328 377.738 235.771 376.429 237.603C375.83 238.442 377.215 239.242 377.809 238.411C380.235 235.014 384.267 233.089 386.402 229.444C388.927 225.132 387.242 220.019 384.113 216.528C382.16 214.35 379.711 212.687 377.308 211.052C376.455 210.472 375.655 211.859 376.502 212.435Z" fill="#E6E7E8"/>
<path d="M389.815 212.435C393.622 215.024 397.854 217.938 399.081 222.664C399.363 223.673 399.439 224.729 399.303 225.769C399.167 226.808 398.823 227.809 398.291 228.712C397.314 230.343 395.858 231.625 394.438 232.861C392.752 234.328 391.052 235.771 389.743 237.603C389.144 238.442 390.529 239.242 391.122 238.411C393.548 235.014 397.58 233.089 399.715 229.444C402.241 225.132 400.556 220.019 397.426 216.528C395.473 214.35 393.024 212.687 390.621 211.052C389.768 210.472 388.968 211.859 389.815 212.435Z" fill="#E6E7E8"/>
<path d="M65.6889 212.435C61.8818 215.024 57.6498 217.938 56.4229 222.664C56.1409 223.673 56.0655 224.729 56.2014 225.769C56.3372 226.808 56.6815 227.809 57.2134 228.712C58.1904 230.343 59.646 231.625 61.0658 232.861C62.7525 234.328 64.4526 235.771 65.7612 237.603C66.3605 238.442 64.9755 239.242 64.3818 238.411C61.9556 235.014 57.9238 233.089 55.7886 229.444C53.2634 225.132 54.9485 220.019 58.0779 216.528C60.0309 214.35 62.4797 212.687 64.8826 211.052C65.7355 210.472 66.5357 211.859 65.6889 212.435Z" fill="#E6E7E8"/>
<path d="M52.3755 212.435C48.5683 215.024 44.3364 217.938 43.1095 222.664C42.8275 223.673 42.7521 224.729 42.8879 225.769C43.0238 226.808 43.368 227.809 43.9 228.712C44.877 230.343 46.3325 231.625 47.7523 232.861C49.439 234.328 51.1391 235.771 52.4478 237.603C53.0471 238.442 51.6621 239.242 51.0683 238.411C48.6421 235.014 44.6103 233.089 42.4751 229.444C39.9499 225.132 41.635 220.019 44.7645 216.528C46.7174 214.35 49.1663 212.687 51.5692 211.052C52.4221 210.472 53.2223 211.859 52.3755 212.435Z" fill="#E6E7E8"/>
<path d="M199.231 157.022C206.093 157.022 211.655 151.449 211.655 144.574C211.655 137.699 206.093 132.126 199.231 132.126C192.369 132.126 186.807 137.699 186.807 144.574C186.807 151.449 192.369 157.022 199.231 157.022Z" fill="#262D2E"/>
<path d="M219.11 204.326C236.493 204.326 250.584 190.207 250.584 172.79C250.584 155.373 236.493 141.255 219.11 141.255C201.727 141.255 187.635 155.373 187.635 172.79C187.635 190.207 201.727 204.326 219.11 204.326Z" fill="#262D2E"/>
<path d="M221.714 204.318C235.84 204.318 247.291 192.845 247.291 178.692C247.291 164.539 235.84 153.065 221.714 153.065C207.589 153.065 196.138 164.539 196.138 178.692C196.138 192.845 207.589 204.318 221.714 204.318Z" fill="#9E616A"/>
<path d="M239.083 152.569C234.601 149.832 229.468 148.351 224.219 148.281C218.971 148.212 213.8 149.557 209.248 152.175C204.695 154.793 200.929 158.589 198.342 163.165C195.755 167.741 194.442 172.929 194.541 178.188C207.574 181.466 221.265 183.975 235.164 178.972L238.446 170.923L240.381 178.978C244.613 180.711 248.857 182.178 253.1 178.961C253.274 173.718 252.07 168.52 249.61 163.889C247.151 159.258 243.521 155.354 239.083 152.569Z" fill="#262D2E"/>
<path d="M172.999 226.089H172.965C171.28 226.106 169.63 225.61 168.232 224.668C166.833 223.727 165.753 222.382 165.132 220.813C164.464 219.224 164.293 217.469 164.64 215.78C164.987 214.091 165.836 212.547 167.077 211.351L167.22 211.208C172.061 206.324 174.788 199.726 174.813 192.843C174.819 183.122 169.387 174.138 164.296 166.48L163.358 165.071C158.284 157.466 153.038 149.603 151.702 140.544C150.284 130.923 153.92 120.769 160.965 114.674C168.277 108.348 179.302 106.647 187.774 110.539C196.556 114.573 202.205 124.624 200.914 133.916L200.901 134.013L197.815 136.794L197.701 136.786C190.394 136.221 183.115 141.045 180.764 147.996C179.18 152.675 179.749 157.803 180.6 162.646C182.404 172.905 185.437 182.908 189.633 192.438C189.846 192.922 190.062 193.408 190.28 193.896C192.726 199.383 195.256 205.057 194.287 210.934C192.756 220.222 182.917 225.657 174.436 226.055C173.956 226.078 173.477 226.09 172.999 226.089Z" fill="#262D2E"/>
<path d="M284.264 301.375C277.362 307.661 269.637 312.975 261.301 317.169L259.539 311.481L258.117 317.025L258.671 318.444C258.058 318.732 257.441 319.009 256.823 319.282C256.296 319.516 255.768 319.746 255.241 319.97C235.935 328.096 214.611 330.114 194.128 325.754C193.59 325.642 193.058 325.524 192.525 325.402C190.198 324.868 187.897 324.249 185.629 323.561L188.803 311.737L185.98 297.443L178.631 321.138C170.289 317.903 162.408 313.583 155.189 308.29C157.447 293.665 160.094 276.111 161.729 263.962C162.32 259.522 162.778 255.809 163.033 253.216C163.241 250.786 163.716 248.386 164.45 246.061C164.81 244.936 165.272 243.847 165.829 242.806C165.946 242.576 166.074 242.358 166.202 242.144C166.324 241.936 166.452 241.739 166.585 241.547C169.855 236.665 174.051 236.963 174.051 236.963L186.577 234.514L190.491 233.746L192.083 233.436L194.032 233.052C195.521 232.761 196.932 232.161 198.175 231.29C199.418 230.418 200.465 229.296 201.248 227.994L206.568 219.142C207.695 217.271 209.358 215.782 211.339 214.868C211.579 214.762 211.824 214.66 212.069 214.564C213.151 214.158 214.291 213.929 215.445 213.887L222.975 213.593L226.021 213.471L230.18 213.31C231.162 213.271 232.144 213.368 233.099 213.599H233.104C233.439 213.679 233.759 213.769 234.084 213.881C236.6 214.732 238.716 216.479 240.032 218.79L243.749 225.321C244.585 226.79 245.752 228.043 247.156 228.981C248.56 229.92 250.163 230.517 251.838 230.726L253.266 230.902L254.868 231.105L258.921 231.612L266.323 232.54L266.339 232.823C267.756 232.935 271.792 233.767 274.498 239.546C274.679 239.925 274.849 240.33 275.014 240.752C275.962 243.314 276.565 245.991 276.809 248.712C276.825 248.83 276.835 248.947 276.846 249.065C277.751 258.311 281.261 281.889 284.264 301.375Z" fill="#262D2E"/>
<path d="M223.954 325.556L223.449 327.92L221.889 327.584L222.353 325.416C223.817 318.575 224.478 311.587 224.323 304.592L222.363 216.16L222.325 214.57L222.304 213.604L223.114 213.588L223.902 213.572L223.982 217.243L225.921 304.751C226.076 311.739 225.416 318.722 223.954 325.556Z" fill="#D45715"/>
<path d="M161.367 266.608L183.829 269.681L185.4 269.895L186.358 270.028L186.246 270.828L186.135 271.613L182.503 271.117L161.148 268.193L161.367 266.608Z" fill="#D45715"/>
<path d="M228.402 215.066L226.021 213.471L223.114 213.588L222.975 213.593L222.325 214.57L222.363 216.16L223.982 217.243L226.032 218.614C226.264 218.771 226.525 218.88 226.8 218.936C227.075 218.991 227.358 218.992 227.633 218.937C227.908 218.883 228.169 218.775 228.403 218.619C228.636 218.464 228.836 218.263 228.992 218.03C229.148 217.797 229.256 217.535 229.311 217.26C229.365 216.984 229.365 216.701 229.311 216.425C229.256 216.15 229.147 215.888 228.991 215.655C228.835 215.422 228.635 215.221 228.402 215.066ZM228.103 217.435C227.986 217.61 227.819 217.747 227.625 217.827C227.43 217.907 227.216 217.928 227.009 217.886C226.803 217.845 226.613 217.743 226.464 217.594C226.315 217.444 226.214 217.254 226.173 217.047C226.133 216.84 226.154 216.625 226.235 216.43C226.315 216.235 226.452 216.069 226.627 215.952C226.802 215.834 227.008 215.772 227.219 215.772C227.429 215.772 227.635 215.834 227.811 215.952C228.045 216.11 228.208 216.355 228.262 216.633C228.317 216.911 228.26 217.199 228.103 217.435Z" fill="#D45715"/>
</g>
<defs>
<clipPath id="clip0_318_1818">
<rect width="431" height="328" fill="white"/>
</clipPath>
</defs>
</svg>
