<svg width="32" height="33" viewBox="0 0 32 33" fill="none" xmlns="http://www.w3.org/2000/svg">
<path d="M21.3333 28.796V26.1294C21.3333 24.7149 20.7714 23.3583 19.7712 22.3581C18.771 21.3579 17.4145 20.796 16 20.796H7.99999C6.5855 20.796 5.22895 21.3579 4.22875 22.3581C3.22856 23.3583 2.66666 24.7149 2.66666 26.1294V28.796M29.3333 28.796V26.1294C29.3324 24.9477 28.9391 23.7997 28.2151 22.8658C27.4912 21.9318 26.4775 21.2648 25.3333 20.9694M21.3333 4.96935C22.4805 5.26309 23.4974 5.93029 24.2235 6.86577C24.9496 7.80125 25.3438 8.95179 25.3438 10.136C25.3438 11.3202 24.9496 12.4708 24.2235 13.4063C23.4974 14.3418 22.4805 15.009 21.3333 15.3027M17.3333 10.1294C17.3333 13.0749 14.9455 15.4627 12 15.4627C9.05447 15.4627 6.66666 13.0749 6.66666 10.1294C6.66666 7.18384 9.05447 4.79602 12 4.79602C14.9455 4.79602 17.3333 7.18384 17.3333 10.1294Z" stroke="#262D2E" stroke-width="3" stroke-linecap="round" stroke-linejoin="round"/>
</svg>
