<svg width="32" height="33" viewBox="0 0 32 33" fill="none" xmlns="http://www.w3.org/2000/svg">
<path d="M9.33333 15.4627V20.796C9.33333 21.5033 9.61428 22.1815 10.1144 22.6816C10.6145 23.1817 11.2928 23.4627 12 23.4627H17.3333M6.66667 4.79602H12C13.4728 4.79602 14.6667 5.98993 14.6667 7.46269V12.796C14.6667 14.2688 13.4728 15.4627 12 15.4627H6.66667C5.19391 15.4627 4 14.2688 4 12.796V7.46269C4 5.98993 5.19391 4.79602 6.66667 4.79602ZM20 18.1294H25.3333C26.8061 18.1294 28 19.3233 28 20.796V26.1294C28 27.6021 26.8061 28.796 25.3333 28.796H20C18.5272 28.796 17.3333 27.6021 17.3333 26.1294V20.796C17.3333 19.3233 18.5272 18.1294 20 18.1294Z" stroke="#262D2E" stroke-width="3" stroke-linecap="round" stroke-linejoin="round"/>
</svg>
